<svg version="1.1" xmlns="http://www.w3.org/2000/svg" xmlns:xlink="http://www.w3.org/1999/xlink" width="457" height="971"><desc>actor%20Dipendente%0A%0ADipendente-%3ESistema%3ALogin%20nel%20sistema%0Aactivate%20Dipendente%0Aactivate%20Sistema%0ASistema--%3EDipendente%3A%20Schermata%20iniziale%0Adeactivate%20Dipendente%0Adeactivate%20Sistema%0A%0ADipendente-%3ESistema%3ASeleziona%20%22Aggiungi%20lavoratore%22%0Aactivate%20Dipendente%0Aactivate%20Sistema%0ASistema--%3EDipendente%3ASchermata%20aggiunta%20del%20nuovo%20lavoratore%0Adeactivate%20Dipendente%0Adeactivate%20Sistema%0A%0Aspace%0A%0Aloop%20Dati%20lavoratore%0Aactivate%20Dipendente%0Aactivate%20Dipendente%0ADipendente-%3EDipendente%3AInserimento%20dati%20lavoratore%0Adeactivate%20Dipendente%0Aactivate%20Sistema%0ADipendente-%3ESistema%3AConferma%20dati%0Aactivate%20Sistema%0ASistema-%3ESistema%3A%20Check%20dati%0Adeactivate%20Sistema%0A%0Abreak%20Dati%20corretti%0ASistema--%3EDipendente%3ASchermata%20disponibilit%C3%A0%0Aend%0A%0ASistema--%3EDipendente%3AErrore%0Adeactivate%20Dipendente%0Adeactivate%20Sistema%0Aend%0A%0A%0Aloop%20Disponibilit%C3%A0%0Aactivate%20Dipendente%0Aactivate%20Sistema%0A%0ADipendente-%3EDipendente%3AInserimento%20comune%20e%20periodo%0ADipendente-%3ESistema%3AConferma%20dati%0A%0Aactivate%20Sistema%0ASistema-%3ESistema%3ACheck%20dati%0Adeactivate%20Sistema%0A%0Aopt%20Se%20dati%20errati%0ASistema--%3EDipendente%3AErrore%0Aend%0A%20%0Abreak%20Salvataggio%0ADipendente-%3ESistema%3APreme%20su%20%22Exit%22%0Adeactivate%20Dipendente%0Adeactivate%20Sistema%0Aend%20%0Aend%20</desc><defs/><g><g/><g/><g/><g/><g/><g/><g/><g/><g/><g/><g/><g/><g/><g/><g><rect fill="white" stroke="none" x="0" y="0" width="457" height="971"/></g><g/><g><path fill="none" stroke="black" paint-order="fill stroke markers" d=" M 75.39324599999999 67.66543828500001 L 75.39324599999999 971.1278361850002" stroke-miterlimit="10" stroke-width="1.0471284166666666" stroke-dasharray="9.665800769230769,4.188513666666666"/><path fill="none" stroke="black" paint-order="fill stroke markers" d=" M 351.7496668333333 67.66543828500001 L 351.7496668333333 971.1278361850002" stroke-miterlimit="10" stroke-width="1.0471284166666666" stroke-dasharray="9.665800769230769,4.188513666666666"/></g><g><g><path fill="white" stroke="black" paint-order="fill stroke markers" d=" M 82.55560436999998 14.513199855000003 A 7.162358369999999 7.162358369999999 0 1 1 82.5556007888211 14.506037497823726 M 75.39324599999999 21.675558225000003 L 75.39324599999999 37.005518245000005 M 66.34605647999999 27.204396265 L 84.44043552 27.204396265 M 75.39324599999999 37.005518245000005 L 66.34605647999999 51.330234985000004 M 75.39324599999999 37.005518245000005 L 84.44043552 51.330234985000004" stroke-miterlimit="10" stroke-width="2.13614197" stroke-dasharray=""/></g><g><g/><text fill="black" stroke="none" font-family="sans-serif" font-size="9pt" font-style="normal" font-weight="normal" text-decoration="normal" x="43.39324599999999" y="63.89577598500001" text-anchor="start" dominant-baseline="alphabetic" xml:space="preserve">Dipendente</text></g><path fill="none" stroke="none"/><g><path fill="white" stroke="black" paint-order="fill stroke markers" d=" M 315.1160548483333 33.73847758500001 L 388.3832788183333 33.73847758500001 L 388.3832788183333 67.66543828500001 L 315.1160548483333 67.66543828500001 L 315.1160548483333 33.73847758500001 Z" stroke-miterlimit="10" stroke-width="2.01048656" stroke-dasharray=""/></g><g><g/><text fill="black" stroke="none" font-family="sans-serif" font-size="9pt" font-style="normal" font-weight="normal" text-decoration="normal" x="328.7496668333333" y="55.099897285000004" text-anchor="start" dominant-baseline="alphabetic" xml:space="preserve">Sistema</text></g></g><g><path fill="white" stroke="black" paint-order="fill stroke markers" d=" M 69.11047549999999 109.131723585 L 81.67601649999999 109.131723585 L 81.67601649999999 144.315238385 L 69.11047549999999 144.315238385 L 69.11047549999999 109.131723585" stroke-miterlimit="10" stroke-width="1.0471284166666666" stroke-dasharray=""/><path fill="white" stroke="black" paint-order="fill stroke markers" d=" M 345.4668963333333 109.131723585 L 358.03243733333335 109.131723585 L 358.03243733333335 144.315238385 L 345.4668963333333 144.315238385 L 345.4668963333333 109.131723585" stroke-miterlimit="10" stroke-width="1.0471284166666666" stroke-dasharray=""/><path fill="white" stroke="black" paint-order="fill stroke markers" d=" M 69.11047549999999 179.498753185 L 81.67601649999999 179.498753185 L 81.67601649999999 214.682267985 L 69.11047549999999 214.682267985 L 69.11047549999999 179.498753185" stroke-miterlimit="10" stroke-width="1.0471284166666666" stroke-dasharray=""/><path fill="white" stroke="black" paint-order="fill stroke markers" d=" M 345.4668963333333 179.498753185 L 358.03243733333335 179.498753185 L 358.03243733333335 214.682267985 L 345.4668963333333 214.682267985 L 345.4668963333333 179.498753185" stroke-miterlimit="10" stroke-width="1.0471284166666666" stroke-dasharray=""/><path fill="white" stroke="black" paint-order="fill stroke markers" d=" M 69.11047549999999 280.023081185 L 81.67601649999999 280.023081185 L 81.67601649999999 541.3863339850001 L 69.11047549999999 541.3863339850001 L 69.11047549999999 280.023081185" stroke-miterlimit="10" stroke-width="1.0471284166666666" stroke-dasharray=""/><path fill="white" stroke="black" paint-order="fill stroke markers" d=" M 75.39324599999999 280.023081185 L 87.95878699999999 280.023081185 L 87.95878699999999 331.541799285 L 75.39324599999999 331.541799285 L 75.39324599999999 280.023081185" stroke-miterlimit="10" stroke-width="1.0471284166666666" stroke-dasharray=""/><path fill="white" stroke="black" paint-order="fill stroke markers" d=" M 345.4668963333333 331.541799285 L 358.03243733333335 331.541799285 L 358.03243733333335 541.3863339850001 L 345.4668963333333 541.3863339850001 L 345.4668963333333 331.541799285" stroke-miterlimit="10" stroke-width="1.0471284166666666" stroke-dasharray=""/><path fill="white" stroke="black" paint-order="fill stroke markers" d=" M 351.7496668333333 366.72531408500004 L 364.3152078333334 366.72531408500004 L 364.3152078333334 418.24403218500004 L 351.7496668333333 418.24403218500004 L 351.7496668333333 366.72531408500004" stroke-miterlimit="10" stroke-width="1.0471284166666666" stroke-dasharray=""/><path fill="white" stroke="black" paint-order="fill stroke markers" d=" M 69.11047549999999 594.1616061850001 L 81.67601649999999 594.1616061850001 L 81.67601649999999 889.4518196850001 L 69.11047549999999 889.4518196850001 L 69.11047549999999 594.1616061850001" stroke-miterlimit="10" stroke-width="1.0471284166666666" stroke-dasharray=""/><path fill="white" stroke="black" paint-order="fill stroke markers" d=" M 345.4668963333333 594.1616061850001 L 358.03243733333335 594.1616061850001 L 358.03243733333335 889.4518196850001 L 345.4668963333333 889.4518196850001 L 345.4668963333333 594.1616061850001" stroke-miterlimit="10" stroke-width="1.0471284166666666" stroke-dasharray=""/><path fill="white" stroke="black" paint-order="fill stroke markers" d=" M 351.7496668333333 680.8638390850001 L 364.3152078333334 680.8638390850001 L 364.3152078333334 732.3825571850001 L 351.7496668333333 732.3825571850001 L 351.7496668333333 680.8638390850001" stroke-miterlimit="10" stroke-width="1.0471284166666666" stroke-dasharray=""/><g><g><rect fill="white" stroke="none" x="162.18662526666665" y="92.796520285" width="102.7696623" height="16.3352033"/></g><text fill="black" stroke="none" font-family="sans-serif" font-size="9pt" font-style="normal" font-weight="normal" text-decoration="normal" x="164.07145641666665" y="104.105507185" text-anchor="start" dominant-baseline="alphabetic" xml:space="preserve">Login nel sistema</text></g><g><path fill="none" stroke="black" paint-order="fill stroke markers" d=" M 81.67601649999999 109.131723585 L 335.12126757666664 109.131723585" stroke-miterlimit="10" stroke-width="1.0471284166666666" stroke-dasharray=""/><g transform="translate(345.4668963333333,109.131723585) translate(-345.4668963333333,-109.131723585)"><path fill="black" stroke="none" paint-order="stroke fill markers" d=" M 334.9956121666666 103.89608150166667 L 345.4668963333333 109.131723585 L 334.9956121666666 114.36736566833333 Z"/></g></g><g><g><rect fill="white" stroke="none" x="161.18662526666665" y="127.98003508499998" width="104.7696623" height="16.3352033"/></g><text fill="black" stroke="none" font-family="sans-serif" font-size="9pt" font-style="normal" font-weight="normal" text-decoration="normal" x="163.07145641666665" y="139.28902198499998" text-anchor="start" dominant-baseline="alphabetic" xml:space="preserve">Schermata iniziale</text></g><g><path fill="none" stroke="black" paint-order="fill stroke markers" d=" M 345.4668963333333 144.315238385 L 92.02164525666666 144.315238385" stroke-miterlimit="10" stroke-width="1.0471284166666666" stroke-dasharray="5.0262164"/><g transform="translate(81.67601649999999,144.315238385) translate(-81.67601649999999,-144.315238385)"><path fill="black" stroke="none" paint-order="stroke fill markers" d=" M 92.14730066666665 139.07959630166664 L 81.67601649999999 144.315238385 L 92.14730066666665 149.55088046833333 Z"/></g></g><g><g><rect fill="white" stroke="none" x="126.68662526666665" y="163.163549885" width="173.7696623" height="16.3352033"/></g><text fill="black" stroke="none" font-family="sans-serif" font-size="9pt" font-style="normal" font-weight="normal" text-decoration="normal" x="128.57145641666665" y="174.47253678500002" text-anchor="start" dominant-baseline="alphabetic" xml:space="preserve">Seleziona "Aggiungi lavoratore"</text></g><g><path fill="none" stroke="black" paint-order="fill stroke markers" d=" M 81.67601649999999 179.498753185 L 335.12126757666664 179.498753185" stroke-miterlimit="10" stroke-width="1.0471284166666666" stroke-dasharray=""/><g transform="translate(345.4668963333333,179.498753185) translate(-345.4668963333333,-179.498753185)"><path fill="black" stroke="none" paint-order="stroke fill markers" d=" M 334.9956121666666 174.26311110166665 L 345.4668963333333 179.498753185 L 334.9956121666666 184.73439526833334 Z"/></g></g><g><g><rect fill="white" stroke="none" x="99.68662526666665" y="198.34706468500002" width="227.7696623" height="16.3352033"/></g><text fill="black" stroke="none" font-family="sans-serif" font-size="9pt" font-style="normal" font-weight="normal" text-decoration="normal" x="101.57145641666665" y="209.65605158500003" text-anchor="start" dominant-baseline="alphabetic" xml:space="preserve">Schermata aggiunta del nuovo lavoratore</text></g><g><path fill="none" stroke="black" paint-order="fill stroke markers" d=" M 345.4668963333333 214.682267985 L 92.02164525666666 214.682267985" stroke-miterlimit="10" stroke-width="1.0471284166666666" stroke-dasharray="5.0262164"/><g transform="translate(81.67601649999999,214.682267985) translate(-81.67601649999999,-214.682267985)"><path fill="black" stroke="none" paint-order="stroke fill markers" d=" M 92.14730066666665 209.44662590166666 L 81.67601649999999 214.682267985 L 92.14730066666665 219.91791006833336 Z"/></g></g><g><g><rect fill="white" stroke="none" x="102.82801051666665" y="298.87139268500005" width="149.7696623" height="16.3352033"/></g><text fill="black" stroke="none" font-family="sans-serif" font-size="9pt" font-style="normal" font-weight="normal" text-decoration="normal" x="104.71284166666665" y="310.180379585" text-anchor="start" dominant-baseline="alphabetic" xml:space="preserve">Inserimento dati lavoratore</text></g><g><path fill="none" stroke="black" paint-order="fill stroke markers" d=" M 87.95878699999999 315.20659598500004 L 138.22095099999999 315.20659598500004 L 138.22095099999999 331.541799285 L 98.30441575666666 331.541799285" stroke-miterlimit="10" stroke-width="1.0471284166666666" stroke-dasharray=""/><g transform="translate(87.95878699999999,331.541799285) translate(-87.95878699999999,-331.541799285)"><path fill="black" stroke="none" paint-order="stroke fill markers" d=" M 98.43007116666665 326.3061572016667 L 87.95878699999999 331.541799285 L 98.43007116666665 336.77744136833337 Z"/></g></g><g><g><rect fill="white" stroke="none" x="175.82801051666664" y="350.39011078500005" width="81.7696623" height="16.3352033"/></g><text fill="black" stroke="none" font-family="sans-serif" font-size="9pt" font-style="normal" font-weight="normal" text-decoration="normal" x="177.71284166666663" y="361.699097685" text-anchor="start" dominant-baseline="alphabetic" xml:space="preserve">Conferma dati</text></g><g><path fill="none" stroke="black" paint-order="fill stroke markers" d=" M 81.67601649999999 366.72531408500004 L 341.40403807666667 366.72531408500004" stroke-miterlimit="10" stroke-width="1.0471284166666666" stroke-dasharray=""/><g transform="translate(351.7496668333333,366.72531408500004) translate(-351.7496668333333,-366.72531408500004)"><path fill="black" stroke="none" paint-order="stroke fill markers" d=" M 341.27838266666663 361.4896720016667 L 351.7496668333333 366.72531408500004 L 341.27838266666663 371.9609561683334 Z"/></g></g><g><g><rect fill="white" stroke="none" x="379.18443135" y="385.57362558500006" width="61.7696623" height="16.3352033"/></g><text fill="black" stroke="none" font-family="sans-serif" font-size="9pt" font-style="normal" font-weight="normal" text-decoration="normal" x="381.06926250000004" y="396.88261248500004" text-anchor="start" dominant-baseline="alphabetic" xml:space="preserve">Check dati</text></g><g><path fill="none" stroke="black" paint-order="fill stroke markers" d=" M 364.3152078333333 401.90882888500005 L 414.5773718333333 401.90882888500005 L 414.5773718333333 418.24403218500004 L 374.66083659 418.24403218500004" stroke-miterlimit="10" stroke-width="1.0471284166666666" stroke-dasharray=""/><g transform="translate(364.3152078333333,418.24403218500004) translate(-364.3152078333333,-418.24403218500004)"><path fill="black" stroke="none" paint-order="stroke fill markers" d=" M 374.786492 413.0083901016667 L 364.3152078333333 418.24403218500004 L 374.786492 423.4796742683334 Z"/></g></g><g><g><rect fill="white" stroke="none" x="146.68662526666665" y="471.01930438500005" width="133.7696623" height="16.3352033"/></g><text fill="black" stroke="none" font-family="sans-serif" font-size="9pt" font-style="normal" font-weight="normal" text-decoration="normal" x="148.57145641666665" y="482.32829128500003" text-anchor="start" dominant-baseline="alphabetic" xml:space="preserve">Schermata disponibilità</text></g><g><path fill="none" stroke="black" paint-order="fill stroke markers" d=" M 345.4668963333333 487.35450768500004 L 92.02164525666666 487.35450768500004" stroke-miterlimit="10" stroke-width="1.0471284166666666" stroke-dasharray="5.0262164"/><g transform="translate(81.67601649999999,487.35450768500004) translate(-81.67601649999999,-487.35450768500004)"><path fill="black" stroke="none" paint-order="stroke fill markers" d=" M 92.14730066666665 482.1188656016667 L 81.67601649999999 487.35450768500004 L 92.14730066666665 492.5901497683334 Z"/></g></g><g><g><rect fill="white" stroke="none" x="194.68662526666665" y="525.0511306850001" width="37.7696623" height="16.3352033"/></g><text fill="black" stroke="none" font-family="sans-serif" font-size="9pt" font-style="normal" font-weight="normal" text-decoration="normal" x="196.57145641666665" y="536.3601175850001" text-anchor="start" dominant-baseline="alphabetic" xml:space="preserve">Errore</text></g><g><path fill="none" stroke="black" paint-order="fill stroke markers" d=" M 345.4668963333333 541.3863339850001 L 92.02164525666666 541.3863339850001" stroke-miterlimit="10" stroke-width="1.0471284166666666" stroke-dasharray="5.0262164"/><g transform="translate(81.67601649999999,541.3863339850001) translate(-81.67601649999999,-541.3863339850001)"><path fill="black" stroke="none" paint-order="stroke fill markers" d=" M 92.14730066666665 536.1506919016667 L 81.67601649999999 541.3863339850001 L 92.14730066666665 546.6219760683334 Z"/></g></g><g><g><rect fill="white" stroke="none" x="96.54524001666665" y="613.0099176850001" width="172.7696623" height="16.3352033"/></g><text fill="black" stroke="none" font-family="sans-serif" font-size="9pt" font-style="normal" font-weight="normal" text-decoration="normal" x="98.43007116666665" y="624.3189045850002" text-anchor="start" dominant-baseline="alphabetic" xml:space="preserve">Inserimento comune e periodo</text></g><g><path fill="none" stroke="black" paint-order="fill stroke markers" d=" M 81.67601649999999 629.3451209850001 L 131.9381805 629.3451209850001 L 131.9381805 645.6803242850001 L 92.02164525666666 645.6803242850001" stroke-miterlimit="10" stroke-width="1.0471284166666666" stroke-dasharray=""/><g transform="translate(81.67601649999999,645.6803242850001) translate(-81.67601649999999,-645.6803242850001)"><path fill="black" stroke="none" paint-order="stroke fill markers" d=" M 92.14730066666665 640.4446822016668 L 81.67601649999999 645.6803242850001 L 92.14730066666665 650.9159663683334 Z"/></g></g><g><g><rect fill="white" stroke="none" x="175.82801051666664" y="664.5286357850001" width="81.7696623" height="16.3352033"/></g><text fill="black" stroke="none" font-family="sans-serif" font-size="9pt" font-style="normal" font-weight="normal" text-decoration="normal" x="177.71284166666663" y="675.8376226850002" text-anchor="start" dominant-baseline="alphabetic" xml:space="preserve">Conferma dati</text></g><g><path fill="none" stroke="black" paint-order="fill stroke markers" d=" M 81.67601649999999 680.8638390850001 L 341.40403807666667 680.8638390850001" stroke-miterlimit="10" stroke-width="1.0471284166666666" stroke-dasharray=""/><g transform="translate(351.7496668333333,680.8638390850001) translate(-351.7496668333333,-680.8638390850001)"><path fill="black" stroke="none" paint-order="stroke fill markers" d=" M 341.27838266666663 675.6281970016668 L 351.7496668333333 680.8638390850001 L 341.27838266666663 686.0994811683335 Z"/></g></g><g><g><rect fill="white" stroke="none" x="379.18443135" y="699.7121505850001" width="61.7696623" height="16.3352033"/></g><text fill="black" stroke="none" font-family="sans-serif" font-size="9pt" font-style="normal" font-weight="normal" text-decoration="normal" x="381.06926250000004" y="711.0211374850002" text-anchor="start" dominant-baseline="alphabetic" xml:space="preserve">Check dati</text></g><g><path fill="none" stroke="black" paint-order="fill stroke markers" d=" M 364.3152078333333 716.0473538850001 L 414.5773718333333 716.0473538850001 L 414.5773718333333 732.3825571850001 L 374.66083659 732.3825571850001" stroke-miterlimit="10" stroke-width="1.0471284166666666" stroke-dasharray=""/><g transform="translate(364.3152078333333,732.3825571850001) translate(-364.3152078333333,-732.3825571850001)"><path fill="black" stroke="none" paint-order="stroke fill markers" d=" M 374.786492 727.1469151016668 L 364.3152078333333 732.3825571850001 L 374.786492 737.6181992683335 Z"/></g></g><g><g><rect fill="white" stroke="none" x="194.68662526666665" y="785.1578293850001" width="37.7696623" height="16.3352033"/></g><text fill="black" stroke="none" font-family="sans-serif" font-size="9pt" font-style="normal" font-weight="normal" text-decoration="normal" x="196.57145641666665" y="796.4668162850002" text-anchor="start" dominant-baseline="alphabetic" xml:space="preserve">Errore</text></g><g><path fill="none" stroke="black" paint-order="fill stroke markers" d=" M 345.4668963333333 801.4930326850001 L 92.02164525666666 801.4930326850001" stroke-miterlimit="10" stroke-width="1.0471284166666666" stroke-dasharray="5.0262164"/><g transform="translate(81.67601649999999,801.4930326850001) translate(-81.67601649999999,-801.4930326850001)"><path fill="black" stroke="none" paint-order="stroke fill markers" d=" M 92.14730066666665 796.2573906016668 L 81.67601649999999 801.4930326850001 L 92.14730066666665 806.7286747683335 Z"/></g></g><g><g><rect fill="white" stroke="none" x="169.68662526666665" y="873.1166163850002" width="87.7696623" height="16.3352033"/></g><text fill="black" stroke="none" font-family="sans-serif" font-size="9pt" font-style="normal" font-weight="normal" text-decoration="normal" x="171.57145641666665" y="884.4256032850002" text-anchor="start" dominant-baseline="alphabetic" xml:space="preserve">Preme su "Exit"</text></g><g><path fill="none" stroke="black" paint-order="fill stroke markers" d=" M 81.67601649999999 889.4518196850001 L 335.12126757666664 889.4518196850001" stroke-miterlimit="10" stroke-width="1.0471284166666666" stroke-dasharray=""/><g transform="translate(345.4668963333333,889.4518196850001) translate(-345.4668963333333,-889.4518196850001)"><path fill="black" stroke="none" paint-order="stroke fill markers" d=" M 334.9956121666666 884.2161776016668 L 345.4668963333333 889.4518196850001 L 334.9956121666666 894.6874617683335 Z"/></g></g><g><g/><path fill="none" stroke="black" paint-order="fill stroke markers" d=" M 12.565540999999994 264.94443198500005 L 445.35203299999995 264.94443198500005 L 445.35203299999995 560.2346454850001 L 12.565540999999994 560.2346454850001 L 12.565540999999994 264.94443198500005 Z" stroke-miterlimit="10" stroke-width="1.7950772857142856" stroke-dasharray=""/><path fill="white" stroke="black" paint-order="fill stroke markers" d=" M 12.565540999999994 264.94443198500005 L 12.565540999999994 280.023081185 L 58.696622999999995 280.023081185 L 66.23594759999999 272.48375658500004 L 66.23594759999999 264.94443198500005 L 12.565540999999994 264.94443198500005" stroke-miterlimit="10" stroke-width="1.7950772857142856" stroke-dasharray=""/><text fill="black" stroke="none" font-family="sans-serif" font-size="7.2pt" font-style="normal" font-weight="bold" text-decoration="normal" x="25.131081999999992" y="274.996864785" text-anchor="start" dominant-baseline="alphabetic" xml:space="preserve">loop</text><g><rect fill="white" stroke="none" x="76.91665744999999" y="265.949675265" width="82.7696623" height="13.06816264"/></g><text fill="black" stroke="none" font-family="sans-serif" font-size="7.2pt" font-style="normal" font-weight="bold" text-decoration="normal" x="78.80148859999998" y="274.996864785" text-anchor="start" dominant-baseline="alphabetic" xml:space="preserve">[Dati lavoratore]</text></g><g><g/><path fill="none" stroke="black" paint-order="fill stroke markers" d=" M 25.131081999999992 437.09234368500006 L 395.72906033333334 437.09234368500006 L 395.72906033333334 506.20281918500007 L 25.131081999999992 506.20281918500007 L 25.131081999999992 437.09234368500006 Z" stroke-miterlimit="10" stroke-width="1.7950772857142856" stroke-dasharray=""/><path fill="white" stroke="black" paint-order="fill stroke markers" d=" M 25.131081999999992 437.09234368500006 L 25.131081999999992 452.17099288500003 L 78.26216399999998 452.17099288500003 L 85.80148859999998 444.63166828500005 L 85.80148859999998 437.09234368500006 L 25.131081999999992 437.09234368500006" stroke-miterlimit="10" stroke-width="1.7950772857142856" stroke-dasharray=""/><text fill="black" stroke="none" font-family="sans-serif" font-size="7.2pt" font-style="normal" font-weight="bold" text-decoration="normal" x="37.69662299999999" y="447.144776485" text-anchor="start" dominant-baseline="alphabetic" xml:space="preserve">break</text><g><rect fill="white" stroke="none" x="96.48219844999998" y="438.097586965" width="66.7696623" height="13.06816264"/></g><text fill="black" stroke="none" font-family="sans-serif" font-size="7.2pt" font-style="normal" font-weight="bold" text-decoration="normal" x="98.36702959999998" y="447.144776485" text-anchor="start" dominant-baseline="alphabetic" xml:space="preserve">[Dati corretti]</text></g><g><g/><path fill="none" stroke="black" paint-order="fill stroke markers" d=" M 12.565540999999994 579.0829569850001 L 445.35203299999995 579.0829569850001 L 445.35203299999995 927.1484426850002 L 12.565540999999994 927.1484426850002 L 12.565540999999994 579.0829569850001 Z" stroke-miterlimit="10" stroke-width="1.7950772857142856" stroke-dasharray=""/><path fill="white" stroke="black" paint-order="fill stroke markers" d=" M 12.565540999999994 579.0829569850001 L 12.565540999999994 594.1616061850001 L 58.696622999999995 594.1616061850001 L 66.23594759999999 586.6222815850001 L 66.23594759999999 579.0829569850001 L 12.565540999999994 579.0829569850001" stroke-miterlimit="10" stroke-width="1.7950772857142856" stroke-dasharray=""/><text fill="black" stroke="none" font-family="sans-serif" font-size="7.2pt" font-style="normal" font-weight="bold" text-decoration="normal" x="25.131081999999992" y="589.1353897850001" text-anchor="start" dominant-baseline="alphabetic" xml:space="preserve">loop</text><g><rect fill="white" stroke="none" x="76.91665744999999" y="580.0882002650002" width="70.7696623" height="13.06816264"/></g><text fill="black" stroke="none" font-family="sans-serif" font-size="7.2pt" font-style="normal" font-weight="bold" text-decoration="normal" x="78.80148859999998" y="589.1353897850001" text-anchor="start" dominant-baseline="alphabetic" xml:space="preserve">[Disponibilità]</text></g><g><g/><path fill="none" stroke="black" paint-order="fill stroke markers" d=" M 25.131081999999992 751.2308686850001 L 395.72906033333334 751.2308686850001 L 395.72906033333334 820.3413441850001 L 25.131081999999992 820.3413441850001 L 25.131081999999992 751.2308686850001 Z" stroke-miterlimit="10" stroke-width="1.7950772857142856" stroke-dasharray=""/><path fill="white" stroke="black" paint-order="fill stroke markers" d=" M 25.131081999999992 751.2308686850001 L 25.131081999999992 766.3095178850001 L 65.26216399999998 766.3095178850001 L 72.80148859999998 758.7701932850001 L 72.80148859999998 751.2308686850001 L 25.131081999999992 751.2308686850001" stroke-miterlimit="10" stroke-width="1.7950772857142856" stroke-dasharray=""/><text fill="black" stroke="none" font-family="sans-serif" font-size="7.2pt" font-style="normal" font-weight="bold" text-decoration="normal" x="37.69662299999999" y="761.2833014850002" text-anchor="start" dominant-baseline="alphabetic" xml:space="preserve">opt</text><g><rect fill="white" stroke="none" x="83.48219844999998" y="752.2361119650002" width="72.7696623" height="13.06816264"/></g><text fill="black" stroke="none" font-family="sans-serif" font-size="7.2pt" font-style="normal" font-weight="bold" text-decoration="normal" x="85.36702959999998" y="761.2833014850002" text-anchor="start" dominant-baseline="alphabetic" xml:space="preserve">[Se dati errati]</text></g><g><g/><path fill="none" stroke="black" paint-order="fill stroke markers" d=" M 31.41385249999999 839.1896556850002 L 389.44628983333325 839.1896556850002 L 389.44628983333325 908.3001311850002 L 31.41385249999999 908.3001311850002 L 31.41385249999999 839.1896556850002 Z" stroke-miterlimit="10" stroke-width="1.7950772857142856" stroke-dasharray=""/><path fill="white" stroke="black" paint-order="fill stroke markers" d=" M 31.41385249999999 839.1896556850002 L 31.41385249999999 854.2683048850001 L 84.54493449999998 854.2683048850001 L 92.08425909999998 846.7289802850001 L 92.08425909999998 839.1896556850002 L 31.41385249999999 839.1896556850002" stroke-miterlimit="10" stroke-width="1.7950772857142856" stroke-dasharray=""/><text fill="black" stroke="none" font-family="sans-serif" font-size="7.2pt" font-style="normal" font-weight="bold" text-decoration="normal" x="43.979393499999986" y="849.2420884850002" text-anchor="start" dominant-baseline="alphabetic" xml:space="preserve">break</text><g><rect fill="white" stroke="none" x="102.76496894999998" y="840.1948989650002" width="68.7696623" height="13.06816264"/></g><text fill="black" stroke="none" font-family="sans-serif" font-size="7.2pt" font-style="normal" font-weight="bold" text-decoration="normal" x="104.64980009999998" y="849.2420884850002" text-anchor="start" dominant-baseline="alphabetic" xml:space="preserve">[Salvataggio]</text></g></g><g/><g/></g></svg>